<svg xmlns="http://www.w3.org/2000/svg" version="1.1" xmlns:xlink="http://www.w3.org/1999/xlink" width="200" height="200"><svg xmlns="http://www.w3.org/2000/svg" version="1.1" xmlns:xlink="http://www.w3.org/1999/xlink" width="200" height="200"><svg xmlns="http://www.w3.org/2000/svg" version="1.1" xmlns:xlink="http://www.w3.org/1999/xlink" viewBox="0 0 200 200"><rect width="200" height="200" fill="url('#gradient')"></rect><defs><linearGradient id="gradient" gradientTransform="rotate(45 0.5 0.5)"><stop offset="0%" stop-color="#228b22"></stop><stop offset="100%" stop-color="#228b22"></stop></linearGradient></defs><g><g fill="#ffffff" transform="matrix(6.098488888888889,0,0,6.098488888888889,29.291226135826108,143.35963168072172)" stroke="#ffffff" stroke-width="0"><path d="M11.65-12.46L4.92-2.64L11.72-2.64L11.72 0L0.64 0L0.64-1.81L7.42-11.57L0.61-11.57L0.61-14.22L11.65-14.22L11.65-12.46ZM13.06-10.57L16.14-10.57L16.25-9.33Q17.34-10.76 19.27-10.76L19.27-10.76Q20.92-10.76 21.73-9.78Q22.55-8.79 22.58-6.81L22.58-6.81L22.58 0L19.28 0L19.28-6.67Q19.28-7.47 18.96-7.85Q18.63-8.22 17.78-8.22L17.78-8.22Q16.82-8.22 16.35-7.46L16.35-7.46L16.35 0L13.06 0L13.06-10.57Z"></path></g></g></svg></svg><style>@media (prefers-color-scheme: light) { :root { filter: none; } }
@media (prefers-color-scheme: dark) { :root { filter: none; } }
</style></svg>